<svg width="24" height="24" viewBox="0 0 24 24" fill="none" xmlns="http://www.w3.org/2000/svg">
<path d="M18.1959 4.83667C18.7269 4.83695 19.1588 5.26837 19.1588 5.79956V6.29956H19.1656L19.1646 16.1345C19.1646 16.6657 18.7329 17.0973 18.2017 17.0974C17.7036 17.0973 17.293 16.7175 17.2437 16.2322V16.2283L17.2388 16.1404L17.2379 16.1345L17.2349 8.12085L6.47614 18.8806C6.09997 19.2568 5.49331 19.2577 5.11677 18.8816C4.74111 18.5053 4.74029 17.8985 5.11579 17.5222L15.8804 6.75757L7.85993 6.76147C7.36209 6.76122 6.95237 6.38209 6.9029 5.89722L6.89802 5.79858C6.89833 5.26771 7.32903 4.83694 7.85993 4.83667H18.1959Z" fill="#F5F5F5"/>
</svg>
