<svg width="32" height="32" viewBox="0 0 32 32" fill="none" xmlns="http://www.w3.org/2000/svg">
<path d="M24.2612 6.44897C24.9692 6.44935 25.5451 7.02458 25.5451 7.73283V8.3995H25.5542L25.5529 21.5128C25.5528 22.2211 24.9773 22.7965 24.269 22.7966C23.6048 22.7964 23.0574 22.29 22.9917 21.643V21.6378L22.9852 21.5206L22.9839 21.5128L22.98 10.8279L8.6349 25.1742C8.13334 25.6758 7.32446 25.677 6.8224 25.1755C6.32152 24.6739 6.32043 23.8647 6.8211 23.363L21.174 9.01017L10.48 9.01538C9.81617 9.01504 9.26987 8.50953 9.20391 7.86304L9.1974 7.73153C9.19781 7.0237 9.77208 6.44934 10.48 6.44897H24.2612Z" fill="#F5F5F5"/>
</svg>
