<svg width="24" height="24" viewBox="0 0 24 24" fill="none" xmlns="http://www.w3.org/2000/svg">
<path d="M10.819 4.63138C11.1606 4.28977 11.7145 4.28997 12.0563 4.63138C12.3976 4.97313 12.3978 5.52713 12.0563 5.86868L7.2262 10.6978C7.15456 10.7695 7.13423 10.8773 7.17249 10.9702C7.21093 11.0628 7.3015 11.1243 7.40296 11.1245H19.3121C19.7952 11.1246 20.1869 11.5165 20.1871 11.9995C20.1871 12.4827 19.7953 12.8745 19.3121 12.8745H7.40296C7.30166 12.8747 7.21102 12.9364 7.17249 13.0288C7.13443 13.1214 7.15485 13.2296 7.2262 13.3013L12.0563 18.1314C12.3976 18.4731 12.3978 19.0271 12.0563 19.3687C11.7147 19.7102 11.1607 19.71 10.819 19.3687L4.06897 12.6187C3.72758 12.277 3.72741 11.723 4.06897 11.3814L10.819 4.63138Z" fill="#F5F5F5"/>
</svg>
