<svg width="24" height="24" viewBox="0 0 24 24" fill="none" xmlns="http://www.w3.org/2000/svg">
<path d="M21.0244 15.0467C21.275 15.0468 21.5165 15.136 21.6951 15.295C21.8738 15.4544 21.9756 15.6719 21.9756 15.8989C21.9753 16.1255 21.8738 16.3425 21.6951 16.5017C21.5165 16.6606 21.2749 16.7499 21.0244 16.75H2.97668C2.72592 16.7499 2.48345 16.6608 2.30488 16.5017C2.12641 16.3425 2.02469 16.1254 2.02441 15.8989C2.02441 15.6721 2.12649 15.4544 2.30488 15.295C2.48347 15.1359 2.72589 15.0468 2.97668 15.0467H21.0244Z" fill="#F5F5F5"/>
<path d="M21.0244 7.25C21.2749 7.25007 21.5163 7.34091 21.6951 7.50022C21.8739 7.65963 21.9756 7.87618 21.9756 8.10308C21.9754 8.32985 21.8738 8.54661 21.6951 8.70594C21.5164 8.86503 21.2748 8.95513 21.0244 8.9552H2.97668C2.72614 8.95513 2.48361 8.86514 2.30488 8.70594C2.12644 8.54663 2.02456 8.32962 2.02441 8.10308C2.02444 7.87652 2.12655 7.65959 2.30488 7.50022C2.48363 7.34094 2.72608 7.25007 2.97668 7.25H21.0244Z" fill="#F5F5F5"/>
</svg>
