<svg width="24" height="24" viewBox="0 0 24 24" fill="none" xmlns="http://www.w3.org/2000/svg">
<path d="M18.8301 4.30566C19.0979 4.30579 19.2976 4.38941 19.4541 4.5459C19.6107 4.70257 19.6943 4.90284 19.6943 5.1709C19.6942 5.43846 19.6104 5.63739 19.4541 5.79395L13.3184 11.9287L13.248 12L13.4775 12.2305L19.4541 18.2061C19.6106 18.3627 19.6943 18.5623 19.6943 18.8301C19.6942 19.098 19.6107 19.2975 19.4541 19.4541C19.2975 19.6107 19.0979 19.6942 18.8301 19.6943C18.5623 19.6943 18.3627 19.6106 18.2061 19.4541L12 13.248L11.9287 13.3184L5.79395 19.4541C5.63741 19.6105 5.43843 19.6942 5.1709 19.6943C4.90284 19.6943 4.70257 19.6107 4.5459 19.4541C4.38938 19.2975 4.30577 19.0979 4.30566 18.8301C4.3057 18.5623 4.38942 18.3627 4.5459 18.2061L10.6816 12.0703L10.7529 12L10.6816 11.9287L10.5215 11.7695L4.5459 5.79395C4.38954 5.6374 4.30579 5.43849 4.30566 5.1709C4.30566 4.90274 4.38921 4.70259 4.5459 4.5459C4.70258 4.38925 4.90277 4.30566 5.1709 4.30566C5.43843 4.30581 5.63742 4.38956 5.79395 4.5459L11.7705 10.5225L11.9287 10.6816L12 10.7529L12.0703 10.6816L18.2061 4.5459C18.3627 4.38945 18.5623 4.3057 18.8301 4.30566Z" fill="#F5F5F5"/>
</svg>
