<svg width="24" height="24" viewBox="0 0 24 24" fill="none" xmlns="http://www.w3.org/2000/svg">
<path d="M18 19.1504C18.4694 19.1504 18.8496 19.5306 18.8496 20C18.8496 20.4694 18.4694 20.8496 18 20.8496H6C5.53056 20.8496 5.15039 20.4694 5.15039 20C5.15039 19.5306 5.53056 19.1504 6 19.1504H18Z" fill="#F5F5F5"/>
<path d="M12 3.15039C12.4694 3.15039 12.8496 3.53056 12.8496 4V13.9492L14.8994 11.8994C15.2314 11.5675 15.7686 11.5675 16.1006 11.8994C16.4325 12.2314 16.4325 12.7686 16.1006 13.1006L12.6006 16.6006C12.2686 16.9325 11.7314 16.9325 11.3994 16.6006L7.89941 13.1006C7.56747 12.7686 7.56747 12.2314 7.89941 11.8994C8.23136 11.5675 8.76864 11.5675 9.10059 11.8994L11.1504 13.9492V4C11.1504 3.53056 11.5306 3.15039 12 3.15039Z" fill="#F5F5F5"/>
</svg>
